<svg xmlns:dc="http://purl.org/dc/elements/1.1/" xmlns:cc="http://creativecommons.org/ns#" xmlns:rdf="http://www.w3.org/1999/02/22-rdf-syntax-ns#" xmlns:svg="http://www.w3.org/2000/svg" xmlns="http://www.w3.org/2000/svg" xmlns:sodipodi="http://sodipodi.sourceforge.net/DTD/sodipodi-0.dtd" xmlns:inkscape="http://www.inkscape.org/namespaces/inkscape" version="1.1" x="0px" y="0px" viewBox="0 0 100 125"><g transform="translate(0,-952.36218)"><path style="text-indent:0;text-transform:none;direction:ltr;block-progression:tb;baseline-shift:baseline;color:#000000;enable-background:accumulate;" d="M 14 19 C 12.343145 19 11 20.343147 11 22 C 11 23.656853 12.343145 25 14 25 L 63.34375 25 L 73.46875 40.625 A 3.0003 3.0003 0 0 0 74.9375 41.8125 L 89 47.09375 L 89 65 L 84.78125 65 C 83.843627 60.461327 79.8014 57 75 57 C 70.1986 57 66.127736 60.461327 65.1875 65 L 40.78125 65 C 39.843627 60.461327 35.8014 57 31 57 C 26.1986 57 22.127737 60.461327 21.1875 65 L 17 65 L 17 54 C 17 52.343147 15.656855 51 14 51 C 12.343145 51 11 52.343147 11 54 L 11 68 A 3.0003 3.0003 0 0 0 14 71 L 21.84375 71 C 23.40196 74.518874 26.933508 77 31 77 C 35.066492 77 38.601923 74.518874 40.15625 71 L 65.84375 71 C 67.40196 74.518874 70.933508 77 75 77 C 79.066492 77 82.601923 74.518874 84.15625 71 L 92 71 A 3.0003 3.0003 0 0 0 95 68 L 95 45 A 3.0003 3.0003 0 0 0 93.0625 42.1875 L 78 36.53125 L 67.53125 20.375 A 3.0003 3.0003 0 0 0 65 19 L 14 19 z M 6 27 C 4.3431452 27 3 28.343147 3 30 C 3 31.656853 4.3431452 33 6 33 L 34 33 C 35.656855 33 37 31.656853 37 30 C 37 28.343147 35.656855 27 34 27 L 6 27 z M 8 35 C 6.3431452 35 5 36.343147 5 38 C 5 39.656853 6.3431452 41 8 41 L 34 41 C 35.656855 41 37 39.656853 37 38 C 37 36.343147 35.656855 35 34 35 L 8 35 z M 12 43 C 10.343145 43 9 44.343147 9 46 C 9 47.656853 10.343145 49 12 49 L 34 49 C 35.656855 49 37 47.656853 37 46 C 37 44.343147 35.656855 43 34 43 L 12 43 z M 31 63 C 33.244673 63 35 64.7554 35 67 C 35 69.2447 33.244673 71 31 71 C 28.755327 71 27 69.2447 27 67 C 27 64.7554 28.755327 63 31 63 z M 75 63 C 77.244673 63 79 64.7554 79 67 C 79 69.2447 77.244673 71 75 71 C 72.755327 71 71 69.2447 71 67 C 71 64.7554 72.755327 63 75 63 z " transform="translate(0,952.36218)" fill="#000000" fill-opacity="1" stroke="none" marker="none" visibility="visible" display="inline" overflow="visible"/></g><text x="0" y="115" fill="#000000" font-size="5px" font-weight="bold" font-family="'Helvetica Neue', Helvetica, Arial-Unicode, Arial, Sans-serif">Created by Rockicon</text><text x="0" y="120" fill="#000000" font-size="5px" font-weight="bold" font-family="'Helvetica Neue', Helvetica, Arial-Unicode, Arial, Sans-serif">from the Noun Project</text></svg>