<svg xmlns="http://www.w3.org/2000/svg" version="1.1" viewBox="-5.0 -10.0 110.0 135.0">
 <path d="m93.75 25.219h-7.6562v-0.45312c0-1.8438-1.1562-3.5156-2.875-4.1562l-6.2969-2.3594v-0.1875c0-2.1875-1.7812-3.9531-3.9531-3.9531h-5.2812c-0.28125-1.8594-1.875-3.2969-3.8125-3.2969h-46.266c-6 0-10.891 4.8906-10.891 10.891v10.188c0 5.9219 4.75 10.75 10.656 10.875l-8.9531 28.766c-2.0781 0.17188-3.7188 1.9062-3.7188 4.0156v9.6094c0 2.2344 1.8125 4.0625 4.0625 4.0625h31.25c2.2344 0 4.0625-1.8125 4.0625-4.0625v-4.0312c0-4.8594-3.6094-8.875-8.2812-9.5312l5-16.016h9.875c3.625 0 6.5938-2.9531 6.5938-6.5938v-6.2188h6.625c1.9375 0 3.5312-1.4375 3.8125-3.2969h5.2812c2.1875 0 3.9531-1.7812 3.9531-3.9531v-0.1875l6.2969-2.3594c1.7188-0.64062 2.8906-2.3125 2.8906-4.1562v-0.45312h7.6562c0.85938 0 1.5625-0.70312 1.5625-1.5625s-0.70312-1.5625-1.5625-1.5625zm-83.906 6.6562v-10.188c0-4.2812 3.4844-7.7656 7.7656-7.7656h2.0156v25.719h-2.0156c-4.2812 0-7.7656-3.4844-7.7656-7.7656zm22.672 39.609h-20.828l2.4219-7.7969h6.1406c2.3125 0 4.3281-1.4688 5.0469-3.6719l5.6094-17.25h10.578zm-10.188-12.422c-0.29688 0.90625-1.125 1.5-2.0781 1.5h-5.1562l5.5469-17.797h6.9844zm-14.516 26.078v-3.6406h18.375c1.4062 0 2.5625 1.1562 2.5625 2.5625v2.0156h-20c-0.51562 0-0.9375-0.42188-0.9375-0.9375zm33.109-4.0156v4.0312c0 0.51562-0.42188 0.9375-0.9375 0.9375h-8.125v-2.0156c0-3.1406-2.5469-5.6875-5.6875-5.6875h-18.359v-2.8438c0-0.51562 0.42188-0.9375 0.9375-0.9375h25.672c3.5938 0 6.5156 2.9219 6.5156 6.5156zm13.172-32.141c0 1.9062-1.5469 3.4688-3.4688 3.4688h-8.8906l3.0156-9.6719h9.3281v6.2188zm10.5-10.094c0 0.40625-0.34375 0.75-0.75 0.75h-41.094v-25.719h41.094c0.42188 0 0.75 0.34375 0.75 0.75zm9.1875-3.3906c0 0.45312-0.375 0.82812-0.82812 0.82812h-5.2188v-19.109h5.2188c0.45312 0 0.82812 0.375 0.82812 0.82812zm9.1875-6.7031c0 0.54688-0.34375 1.0469-0.85938 1.2344l-5.2031 1.9531v-10.375l5.2031 1.9531c0.51562 0.1875 0.84375 0.6875 0.84375 1.2344v4.0312zm-22.984 1.8906c0 0.85938-0.70312 1.5625-1.5625 1.5625h-28.781c-0.85938 0-1.5625-0.70312-1.5625-1.5625s0.70312-1.5625 1.5625-1.5625h28.781c0.85938 0 1.5625 0.70312 1.5625 1.5625zm0-8.4219c0 0.85938-0.70312 1.5625-1.5625 1.5625h-28.781c-0.85938 0-1.5625-0.70312-1.5625-1.5625s0.70312-1.5625 1.5625-1.5625h28.781c0.85938 0 1.5625 0.70312 1.5625 1.5625z"/>
<text x="0.0" y="117.5" font-size="5.0" font-weight="bold" font-family="Arbeit Regular, Helvetica, Arial-Unicode, Arial, Sans-serif" fill="#000000">Created by Andi Nur Abdillah</text><text x="0.0" y="122.5" font-size="5.0" font-weight="bold" font-family="Arbeit Regular, Helvetica, Arial-Unicode, Arial, Sans-serif" fill="#000000">from Noun Project</text></svg>