<svg xmlns="http://www.w3.org/2000/svg" xmlns:xlink="http://www.w3.org/1999/xlink" xml:space="preserve" style="shape-rendering:geometricPrecision;text-rendering:geometricPrecision;image-rendering:optimizeQuality;" viewBox="0 0 6.82666 8.533325000000001" x="0px" y="0px" fill-rule="evenodd" clip-rule="evenodd"><defs><style type="text/css">
   
    .fil1 {fill:none}
    .fil0 {fill:black;fill-rule:nonzero}
    
   
  </style></defs><g><path class="fil0" d="M3.41333 0.853327c0.590524,0 1.12624,0.0664449 1.515,0.173866 0.408299,0.112815 0.660843,0.277055 0.660843,0.465953 0,0.188898 -0.252543,0.353138 -0.660839,0.465957 -0.38876,0.107417 -0.924484,0.173862 -1.51501,0.173862 -0.590524,0 -1.12625,-0.0664449 -1.51501,-0.173862 -0.408295,-0.112819 -0.660839,-0.277059 -0.660839,-0.465957 0,-0.188898 0.252543,-0.353138 0.660843,-0.465953 0.38876,-0.107421 0.92448,-0.173866 1.515,-0.173866zm1.48667 0.276362c-0.379429,-0.104843 -0.904972,-0.169693 -1.48667,-0.169693 -0.581701,0 -1.10724,0.0648504 -1.48667,0.169693 -0.359898,0.0994409 -0.582504,0.228457 -0.582504,0.363457 0,0.135 0.222606,0.264016 0.5825,0.363461 0.379429,0.104839 0.904976,0.169689 1.48668,0.169689 0.581701,0 1.10725,-0.0648504 1.48668,-0.169689 0.359894,-0.0994449 0.5825,-0.228461 0.5825,-0.363461 0,-0.135 -0.222606,-0.264016 -0.582504,-0.363457z"/><path class="fil0" d="M5.58918 1.49315l0 3.79121c0,0.00569685 -0.000893701,0.0111772 -0.00254724,0.0163228l3.93701e-006 0 3.93701e-006 1.9685e-005 7.87402e-006 6.69291e-005c0.00166142,0.0108307 0.0025315,0.0217638 0.0025315,0.032752 0,0.188898 -0.252543,0.353138 -0.660843,0.465953 -0.38876,0.107421 -0.92448,0.173866 -1.515,0.173866 -0.590524,0 -1.12624,-0.0664449 -1.515,-0.173866 -0.408299,-0.112815 -0.660843,-0.277055 -0.660843,-0.465953 0,-0.0110197 0.000870079,-0.0219764 0.00254331,-0.0328386l3.93701e-006 0 0 -3.93701e-006 -3.93701e-006 0 0 -7.87402e-006c-0.00164961,-0.00514173 -0.00254331,-0.010622 -0.00254331,-0.016311l0 -3.79121 0.106669 0c0,0.135 0.222606,0.264016 0.5825,0.363461 0.379429,0.104839 0.904976,0.169689 1.48668,0.169689 0.581701,0 1.10725,-0.0648504 1.48668,-0.169689 0.359894,-0.0994449 0.5825,-0.228461 0.5825,-0.363461l0.106669 0zm-0.106669 3.76395l0 -3.5584c-0.110744,0.10211 -0.302961,0.190996 -0.554169,0.260409 -0.38876,0.107417 -0.924484,0.173862 -1.51501,0.173862 -0.590524,0 -1.12625,-0.0664449 -1.51501,-0.173862 -0.251209,-0.0694134 -0.443425,-0.158299 -0.554169,-0.260409l0 3.55842c0.00735433,0.0123898 0.00970079,0.0277087 0.00522835,0.0425945l-7.08661e-005 -2.3622e-005c-0.00154724,0.00516535 -0.00277559,0.0104016 -0.00364961,0.0156811l-0.000216535 0.00156693c-0.000850394,0.00551181 -0.00129134,0.0110472 -0.00129134,0.0165827 0,0.135 0.222606,0.264016 0.582504,0.363457 0.379429,0.104843 0.904972,0.169693 1.48667,0.169693 0.581701,0 1.10724,-0.0648504 1.48667,-0.169693 0.359898,-0.0994409 0.582504,-0.228457 0.582504,-0.363457 0,-0.00552362 -0.000437008,-0.0110512 -0.0012874,-0.0165472l-7.87402e-006 -5.90551e-005 0.00438583 -0.000673228 -0.000114173 -0.00015748 -0.00426772 0.000641732c-0.000755906,-0.00490945 -0.00181496,-0.00977559 -0.00315748,-0.0145906 -0.00196457,-0.00556299 -0.00303937,-0.0115433 -0.00303937,-0.0177756 0,-0.00996063 0.00273228,-0.0192795 0.00748819,-0.0272598z"/><path class="fil0" d="M5.58918 4.43117c0,-0.0294528 -0.0238819,-0.0533346 -0.0533346,-0.0533346 -0.0294528,0 -0.0533346,0.0238819 -0.0533346,0.0533346 0,0.135 -0.222606,0.264016 -0.5825,0.363461 -0.379429,0.104839 -0.904976,0.169689 -1.48668,0.169689 -0.581701,0 -1.10725,-0.0648504 -1.48668,-0.169689 -0.359894,-0.0994449 -0.5825,-0.228461 -0.5825,-0.363461 0,-0.0294528 -0.0238819,-0.0533346 -0.0533346,-0.0533346 -0.0294528,0 -0.0533346,0.0238819 -0.0533346,0.0533346 0,0.188898 0.252543,0.353138 0.660839,0.465957 0.38876,0.107417 0.924484,0.173862 1.51501,0.173862 0.590524,0 1.12625,-0.0664449 1.51501,-0.173862 0.408295,-0.112819 0.660839,-0.277059 0.660839,-0.465957z"/><path class="fil0" d="M5.58918 2.44466c0,-0.0294528 -0.0238819,-0.0533346 -0.0533346,-0.0533346 -0.0294528,0 -0.0533346,0.0238819 -0.0533346,0.0533346 0,0.0913268 -0.10763,0.182075 -0.293634,0.263598 -0.20878,0.0915079 -0.509748,0.165768 -0.867728,0.213075 -0.0291063,0.00379528 -0.0496299,0.0304764 -0.0458346,0.0595827 0.00379528,0.0291063 0.0304764,0.0496299 0.0595827,0.0458346 0.367996,-0.0486339 0.678949,-0.125657 0.896476,-0.220996 0.226657,-0.0993425 0.357807,-0.222807 0.357807,-0.361094zm-1.70896 0.625571c0.0293386,-0.00172441 0.0517244,-0.0269134 0.05,-0.056252 -0.00172441,-0.0293386 -0.0269134,-0.0517244 -0.056252,-0.05 -0.076311,0.00469291 -0.152543,0.00823228 -0.228354,0.0105236 -0.0721969,0.0021811 -0.149638,0.00330709 -0.23228,0.00330709 -0.132504,0 -0.260252,-0.00322835 -0.382346,-0.00940945 -0.126681,-0.00640945 -0.249614,-0.0159843 -0.367654,-0.0284055 -0.0292244,-0.00298819 -0.0553465,0.0182756 -0.0583346,0.0475 -0.00298819,0.0292244 0.0182756,0.0553465 0.0475,0.0583346 0.119508,0.0125748 0.244378,0.0222913 0.373488,0.0288228 0.127512,0.00645276 0.257028,0.00982677 0.387346,0.00982677 0.0753386,0 0.153886,-0.00126378 0.235193,-0.00372441 0.0802244,-0.0024252 0.15752,-0.00596063 0.231693,-0.0105236zm-1.63975 -0.0826811c0.028878,0.00517323 0.0564921,-0.0140394 0.0616654,-0.0429173 0.00517323,-0.028878 -0.0140394,-0.0564921 -0.0429173,-0.0616654 -0.289008,-0.0524331 -0.52715,-0.123728 -0.690453,-0.207268 -0.143272,-0.0732874 -0.224606,-0.152272 -0.224606,-0.231039 0,-0.0294528 -0.0238819,-0.0533346 -0.0533346,-0.0533346 -0.0294528,0 -0.0533346,0.0238819 -0.0533346,0.0533346 0,0.122669 0.102457,0.233295 0.282945,0.325622 0.172528,0.0882598 0.420862,0.162988 0.720035,0.217268z"/><path class="fil0" d="M1.56107 1.72187c-0.0218583,-0.0196732 -0.0555354,-0.0179016 -0.0752087,0.00395669 -0.0196732,0.0218583 -0.0179016,0.0555354 0.00395669,0.0752087 0.249681,0.225 0.33315,0.415862 0.426169,0.628575 0.102736,0.234933 0.216634,0.495378 0.560992,0.852732 0.0624291,0.0647913 0.113858,0.0664646 0.157421,0.0244921 0.0612402,-0.0590157 0.0695591,-0.241862 0.0775827,-0.418386 0.00643701,-0.141563 0.0126693,-0.278539 0.0356299,-0.305441 0.14178,-0.166094 0.216382,-0.183776 0.262197,-0.144665 0.0384528,0.0328268 0.0689803,0.101724 0.0977165,0.166579 0.0261496,0.0590197 0.0510315,0.115173 0.0848346,0.15276 0.0544331,0.0605118 0.117886,0.0752638 0.204193,-0.00237008 0.0234606,-0.0211063 0.0396732,-0.0435984 0.0546969,-0.0644528 0.0374449,-0.0519646 0.0625315,-0.0867795 0.363354,0.127425 0.00961417,0.00684252 0.0171654,0.0150315 0.0228307,0.0242441 0.0161181,0.026189 0.0176417,0.0623819 0.00875197,0.102055 -0.0102008,0.0455315 -0.0338937,0.0943701 -0.0658307,0.13922 -0.0339961,0.0477441 -0.0769134,0.0900118 -0.122441,0.118028l-0.0269449 0.0165827c-0.185874,0.114398 -0.214602,0.23322 -0.15422,0.331331 0.0336339,0.0546496 0.0977559,0.0991614 0.178047,0.129209 0.075378,0.0282087 0.166122,0.0443819 0.258756,0.0443819 0.272331,0 0.566484,-0.134925 0.566484,-0.502736l0 -0.0225039c0,-0.11402 -0.0462913,-0.162913 -0.0854606,-0.204272 -0.0358228,-0.0378346 -0.060689,-0.0641024 0.100264,-0.27085 0.187846,-0.241295 0.391272,-0.226449 0.526488,-0.216583 0.0272283,0.00198425 0.0520472,0.00379921 0.0736299,0.00379921 0.094815,0 0.152,-0.0245315 0.152,-0.139429l0 -0.0313858c0,-0.0666378 -0.003,-0.143047 -0.0140433,-0.217228 -0.00972441,-0.065311 -0.025748,-0.128764 -0.0514606,-0.182598 0.00862598,-0.0144646 0.0197362,-0.0328071 0.0300039,-0.049752 0.0184843,-0.0305 0.0347244,-0.0573465 0.0368228,-0.0662874 0.00666929,-0.0286457 -0.0111457,-0.0572874 -0.0397913,-0.0639567 -0.0286457,-0.00666929 -0.0572874,0.0111457 -0.0639567,0.0397913 -0.00151575,0.00646063 -0.0103583,0.0130906 -0.0239094,0.0354528 -0.0173031,0.028563 -0.036811,0.0607362 -0.0446063,0.0744134 -0.0107126,0.0163819 -0.0119764,0.0380787 -0.00143307,0.0561339l1.9685e-005 -1.1811e-005c0.0269803,0.046189 0.0432559,0.107504 0.0528937,0.172232 0.0100591,0.0675669 0.0127913,0.138976 0.0127913,0.201811l0 0.0313858c0,0.0269961 -0.0170551,0.0327598 -0.0453307,0.0327598 -0.0197992,0 -0.0418976,-0.00161417 -0.0661339,-0.00338189 -0.157839,-0.0115157 -0.395295,-0.0288465 -0.61815,0.257417 -0.217031,0.278783 -0.166287,0.332382 -0.0931772,0.409598 0.0256063,0.0270354 0.0558701,0.0590039 0.0558701,0.130941l0 0.0225039c0,0.289772 -0.238764,0.396067 -0.459815,0.396067 -0.0806417,0 -0.158323,-0.0135906 -0.221669,-0.0372953 -0.0584331,-0.0218661 -0.10337,-0.0514528 -0.124299,-0.0854606 -0.0284213,-0.0461811 -0.0016378,-0.11028 0.11922,-0.184661l0.0269449 -0.0165827c0.0574646,-0.0353622 0.111161,-0.0880472 0.153276,-0.147193 0.0396772,-0.0557244 0.0694843,-0.118063 0.0829094,-0.177976 0.0147362,-0.0657638 0.0100315,-0.129307 -0.0216654,-0.180803 -0.012815,-0.0208307 -0.0299961,-0.0394134 -0.0519961,-0.0550787 -0.38687,-0.275476 -0.43678,-0.20622 -0.511276,-0.102835 -0.0114843,0.0159409 -0.023874,0.0331339 -0.0396969,0.0473661 -0.0263622,0.0237126 -0.0423425,0.0229921 -0.0537756,0.0102835 -0.0224252,-0.0249331 -0.0439173,-0.0734409 -0.0665039,-0.124421 -0.0334803,-0.075563 -0.0690472,-0.155843 -0.126047,-0.2045 -0.0920709,-0.0785945 -0.216657,-0.0727402 -0.412197,0.156335 -0.0467087,0.0547205 -0.0537638,0.209776 -0.0610472,0.370024 -0.0070748,0.155587 -0.0144055,0.31674 -0.0450787,0.346299 -0.00448425,0.0043189 0.0030315,-0.0111575 -0.00700394,-0.0215709 -0.331248,-0.343752 -0.441091,-0.594917 -0.540165,-0.82148 -0.0979724,-0.224035 -0.185886,-0.425063 -0.452413,-0.665244z"/><path class="fil0" d="M1.338 1.63122c-0.0166811,0.0241575 -0.0106181,0.0572756 0.0135394,0.0739567 0.0241575,0.0166811 0.0572756,0.0106181 0.0739567,-0.0135394 0.0859409,-0.12489 0.334516,-0.236709 0.685693,-0.318571 0.353524,-0.0824094 0.807043,-0.131898 1.30214,-0.131898 0.4955,0 0.949354,0.0495669 1.30302,0.132102 0.351173,0.0819567 0.599571,0.193854 0.685039,0.318787 0.0165669,0.0242756 0.0496811,0.0305236 0.0739567,0.0139567 0.0242756,-0.0165669 0.0305236,-0.0496811 0.0139567,-0.0739567 -0.100996,-0.14763 -0.372177,-0.274642 -0.748787,-0.362535 -0.36148,-0.0843583 -0.823846,-0.135024 -1.32718,-0.135024 -0.502921,0 -0.964949,0.0505827 -1.32631,0.134819 -0.376409,0.0877441 -0.647614,0.214531 -0.749024,0.361902z"/></g><rect class="fil1" width="5.82666" height="5.82666"/><text x="0" y="19.82666" fill="#ffffff" font-size="5px" font-weight="bold" font-family="'Helvetica Neue', Helvetica, Arial-Unicode, Arial, Sans-serif">Created by Graphic Nehar</text><text x="0" y="26.82666" fill="#ffffff" font-size="5px" font-weight="bold" font-family="'Helvetica Neue', Helvetica, Arial-Unicode, Arial, Sans-serif">from the Noun Project</text></svg>