<svg xmlns="http://www.w3.org/2000/svg" version="1.1" viewBox="-5.0 -10.0 110.0 135.0">
 <g>
  <path d="m91.672 31.828h-17.891l-14.152-24.258c-0.41016-0.72266-1.3242-0.97656-2.0508-0.57031-0.35938 0.19141-0.625 0.52344-0.73438 0.91406-0.10938 0.39453-0.054688 0.81641 0.15625 1.1641l13.309 22.75h-40.609l13.301-22.75c0.38281-0.71094 0.12891-1.5938-0.56641-2.0039-0.69922-0.40625-1.5938-0.1875-2.0234 0.49609l-14.191 24.258h-17.891c-0.82812 0-1.5 0.67188-1.5 1.5v12.5c0 0.83203 0.67188 1.5 1.5 1.5h3l12.199 44.738 0.003906 0.003906c0.17969 0.66016 0.78516 1.1094 1.4688 1.1016h50c0.67578 0 1.2695-0.44922 1.4492-1.1016l12.199-44.738h3v-0.003906c0.82812 0 1.5-0.66797 1.5-1.5v-12.5c0-0.82031-0.65625-1.4883-1.4766-1.5zm-17.812 58.344h-47.711l-11.688-42.844h71.078zm16.312-45.844h-80.344v-9.5h80.344z"/>
  <path d="m33.328 38.078h-12.5c-0.82812 0-1.5 0.67188-1.5 1.5 0 0.83203 0.67188 1.5 1.5 1.5h12.5c0.83203 0 1.5-0.66797 1.5-1.5 0-0.82812-0.66797-1.5-1.5-1.5z"/>
  <path d="m65.172 39.578c0 0.83203 0.66797 1.5 1.5 1.5h12.5c0.82812 0 1.5-0.66797 1.5-1.5 0-0.82812-0.67188-1.5-1.5-1.5h-12.5c-0.83203 0-1.5 0.67188-1.5 1.5z"/>
  <path d="m29.172 84.84h8.3281c0.82812 0 1.5-0.67188 1.5-1.5v-29.168c0-0.83203-0.67188-1.5-1.5-1.5h-8.3281c-0.83203 0-1.5 0.66797-1.5 1.5v29.168c0 0.82812 0.66797 1.5 1.5 1.5zm1.5-29.172 5.3281 0.003906v26.168h-5.3281z"/>
  <path d="m62.5 84.84h8.3398c0.82812 0 1.5-0.67188 1.5-1.5v-29.168c0-0.83203-0.67188-1.5-1.5-1.5h-8.3398c-0.82812 0-1.5 0.66797-1.5 1.5v29.168c0 0.82812 0.67188 1.5 1.5 1.5zm1.5-29.168h5.3398v26.168h-5.3398z"/>
  <path d="m45.84 84.84h8.332c0.82812 0 1.5-0.67188 1.5-1.5v-29.168c0-0.83203-0.67188-1.5-1.5-1.5h-8.332c-0.82812 0-1.5 0.66797-1.5 1.5v29.168c0 0.82812 0.67188 1.5 1.5 1.5zm1.5-29.172h5.3281l0.003906 26.172h-5.332z"/>
 </g>
<text x="0.0" y="117.5" font-size="5.0" font-weight="bold" font-family="Arbeit Regular, Helvetica, Arial-Unicode, Arial, Sans-serif" fill="#000000">Created by faisalovers</text><text x="0.0" y="122.5" font-size="5.0" font-weight="bold" font-family="Arbeit Regular, Helvetica, Arial-Unicode, Arial, Sans-serif" fill="#000000">from Noun Project</text></svg>