<svg xmlns="http://www.w3.org/2000/svg" xmlns:xlink="http://www.w3.org/1999/xlink" version="1.1" x="0px" y="0px" viewBox="0 0 53 66.25" style="enable-background:new 0 0 53 53;" xml:space="preserve"><g><path d="M13.984314,40.4968872c2.4699707,0,4.4799805-2.0100098,4.4799805-4.4800415   c0-2.4699707-2.0100098-4.4799805-4.4799805-4.4799805c-2.460022,0-4.4700317,2.0100098-4.4700317,4.4799805   C9.5142822,38.4868774,11.524292,40.4968872,13.984314,40.4968872z"/><path d="M49.5,44.3731689h-1.9052734c1.1808472-1.2363281,1.9095459-2.9084473,1.9095459-4.7562866   c0-3.8500366-3.1399536-6.8900146-6.8899536-6.8900146c-3.8699951,0-6.8900146,3.1599731-6.8900146,6.8900146   c0,1.8478394,0.7286987,3.5199585,1.9095459,4.7562866H20.3110352c2.5310669-1.9169312,4.1732788-4.9456787,4.1732788-8.366333   c0-5.7799683-4.7000122-10.4799805-10.5-10.4799805c-5.7600098,0-10.4800415,4.6600342-10.4800415,10.4799805   c0,3.4206543,1.6386719,6.4494019,4.164856,8.366333H3.5c-0.5527344,0-1,0.4477539-1,1s0.4472656,1,1,1   c47.9682922,0-5.5105333,0,46,0c0.5527344,0,1-0.4477539,1-1S50.0527344,44.3731689,49.5,44.3731689z M42.6143188,36.7768555   c1.5700073,0,2.8399658,1.2700195,2.8399658,2.8400269s-1.2699585,2.8399658-2.8399658,2.8399658   s-2.8400269-1.2699585-2.8400269-2.8399658S41.0443115,36.7768555,42.6143188,36.7768555z M13.984314,29.5368652   c3.5799561,0,6.4799805,2.9000244,6.4799805,6.4799805c0,3.5700073-2.9000244,6.4800415-6.4799805,6.4800415   c-3.5700073,0-6.4700317-2.9100342-6.4700317-6.4800415C7.5142822,32.4368896,10.4143066,29.5368652,13.984314,29.5368652z"/><path d="M20.7943115,25.546875H43.984314v2H23.1643066c2.0599976,2.2299805,3.3200073,5.2000122,3.3200073,8.4599609h8.0100098   c1.3799438-3.1099854,4.5-5.2799683,8.1199951-5.2799683c1.1900024,0,2.3299561,0.2399902,3.3699951,0.6599731v-6.6199951   c0-1.2999878-0.9299927-2.3900146-2.2200317-2.5899658l-3.3299561-0.5200195V9.0368652   c0-0.5700073-0.460022-1.0300293-1.0300293-1.0300293h-2.2000122c-0.5700073,0-1.0299683,0.460022-1.0299683,1.0300293v11.9500122   l-7.1600342-1.1300049H28.984314L24.4642944,8.5568848c-0.4799805-1.1700439-1.5999756-1.9300537-2.8699951-1.9300537H10.1043091   c-1.7000122,0-3.0900269,1.3800049-3.0900269,3.0800171v11.1400146c0,0,0,0,0,0.0100098v4.7999878   c1.9899902-1.3400269,4.3900146-2.1300049,6.9700317-2.1300049C16.4943237,23.5268555,18.8342896,24.2668457,20.7943115,25.546875z    M11.8342896,14.0968628v5.75H9.0142822V9.7068481c0-0.5999756,0.4899902-1.0800171,1.0900269-1.0800171h11.4899902   c0.4500122,0,0.8400269,0.2700195,1.0100098,0.6800537l3.5800171,8.9400024l-2.3200073-1.5300293l0.1999512-0.3099976   c0.2900391-0.460022,0.1600342-1.0800171-0.2999878-1.3800049c-0.4699707-0.2999878-1.0899658-0.1699829-1.3900146,0.2999878   l-1.4699707,2.2900391c-0.2999878,0.4599609-0.1699829,1.0799561,0.2999878,1.3800049   c0.4113541,0.2827072,1.0648689,0.1976089,1.3800049-0.3000488l0.1900024-0.2999878l2.1900024,1.4500122h-8.5100098v-5.75   c0-0.2399902-0.2000122-0.4400024-0.4400024-0.4400024H12.274292   C12.0343018,13.6568604,11.8342896,13.8568726,11.8342896,14.0968628z"/></g><text x="0" y="68" fill="#000000" font-size="5px" font-weight="bold" font-family="'Helvetica Neue', Helvetica, Arial-Unicode, Arial, Sans-serif">Created by Brickclay</text><text x="0" y="73" fill="#000000" font-size="5px" font-weight="bold" font-family="'Helvetica Neue', Helvetica, Arial-Unicode, Arial, Sans-serif">from the Noun Project</text></svg>